<svg width="1em" height="1em" viewBox="0 0 190 190" fill="none" xmlns="http://www.w3.org/2000/svg">
<path d="M127.381 88.812H62.508C61.843 88.812 61.326 89.329 61.326 89.994V100.929C61.326 101.594 61.843 102.111 62.508 102.111H87.112V135.434C87.112 136.099 87.63 136.616 88.295 136.616H101.742C102.407 136.616 102.924 136.099 102.924 135.434V102.111H127.528C128.193 102.111 128.71 101.594 128.71 100.929V89.994C128.563 89.329 128.046 88.812 127.381 88.812V88.812ZM94.944 73.296C100.486 73.296 104.919 68.788 104.919 63.321C104.919 57.779 100.412 53.3459 94.944 53.3459C89.403 53.3459 84.97 57.853 84.97 63.321C84.9646 64.6323 85.2188 65.9318 85.7182 67.1444C86.2175 68.357 86.9519 69.4587 87.8792 70.3861C88.8064 71.3134 89.9081 72.048 91.1206 72.5474C92.3332 73.0468 93.6326 73.3013 94.944 73.296V73.296Z" fill="black"/>
<path fill-rule="evenodd" clip-rule="evenodd" d="M94.944 169.173C135.94 169.173 169.173 135.94 169.173 94.944C169.173 53.949 135.94 20.715 94.944 20.715C53.949 20.715 20.715 53.949 20.715 94.944C20.715 135.94 53.949 169.173 94.944 169.173V169.173ZM94.944 189.889C147.381 189.889 189.889 147.381 189.889 94.944C189.889 42.508 147.381 0 94.944 0C42.508 0 0 42.508 0 94.944C0 147.381 42.508 189.889 94.944 189.889V189.889Z" fill="black"/>
</svg>
