<?xml version="1.0" standalone="no"?>
<!DOCTYPE svg PUBLIC "-//W3C//DTD SVG 20010904//EN"
 "http://www.w3.org/TR/2001/REC-SVG-20010904/DTD/svg10.dtd">
<svg version="1.0" xmlns="http://www.w3.org/2000/svg"
 width="512.000000pt" height="512.000000pt" viewBox="0 0 512.000000 512.000000"
 preserveAspectRatio="xMidYMid meet">
<metadata>
Created by potrace 1.11, written by Peter Selinger 2001-2013
</metadata>
<g transform="translate(0.000000,512.000000) scale(0.100000,-0.100000)"
fill="#000000" stroke="none">
<path d="M2430 4814 c-332 -28 -585 -95 -851 -225 -224 -110 -400 -232 -573
-399 -369 -355 -598 -804 -672 -1316 -20 -141 -23 -446 -5 -574 71 -505 276
-936 611 -1284 355 -369 804 -598 1316 -672 141 -20 446 -23 574 -5 505 71
936 276 1284 611 369 355 598 804 672 1316 23 160 23 448 0 609 -144 1000
-918 1776 -1911 1919 -112 15 -363 27 -445 20z m-592 -1411 l3 -73 54 0 55 0
0 75 0 76 108 -3 107 -3 3 -72 3 -73 54 0 55 0 0 75 0 75 110 0 110 0 0 -200
0 -200 -80 0 -80 0 0 -165 0 -165 55 0 54 0 133 156 c73 86 135 160 136 165 2
5 -26 9 -62 9 l-66 0 0 200 0 200 455 0 455 0 0 -205 0 -205 -69 0 -69 0 -207
-241 c-114 -133 -208 -247 -209 -254 0 -7 94 -124 209 -259 l210 -246 73 0 72
0 -2 -202 -3 -203 -455 0 -455 0 -3 203 -2 202 66 0 c36 0 64 4 62 8 -1 5 -61
77 -133 160 l-130 152 -57 0 -58 0 0 -160 0 -160 80 0 80 0 -2 -202 -3 -203
-440 0 -440 0 -3 203 -2 202 95 0 95 0 0 500 0 500 -95 0 -95 0 0 205 0 206
113 -3 112 -3 3 -72z"/>
</g>
</svg>
